<?xml version="1.0" encoding="iso-8859-1"?>
<!-- Uploaded to: SVG Repo, www.svgrepo.com, Generator: SVG Repo Mixer Tools -->
<svg version="1.1" id="Layer_1" xmlns="http://www.w3.org/2000/svg" xmlns:xlink="http://www.w3.org/1999/xlink" 
	 viewBox="0 0 512 512" xml:space="preserve">
<path style="fill:#848075;" d="M86.145,262.149c0,30.582-5.594,60.76-16.366,89.087c-8.163,21.467,7.797,44.444,30.763,44.444H256
	l65.75-70.339L256,262.148H86.145V262.149z"/>
<path style="fill:#706B63;" d="M442.222,351.236c-10.772-28.327-16.366-58.506-16.366-89.087H256v133.532h155.458
	C434.425,395.681,450.385,372.704,442.222,351.236z"/>
<path style="fill:#E1B872;" d="M339.011,418.548L339.011,418.548c-4.964-5.82-10.551-11.08-16.666-15.675
	c-0.832-0.625-1.659-1.255-2.504-1.861c-17.977-12.908-40.021-20.513-63.841-20.513l-43.834,65.75L256,512
	c22.749,0,44.787-3.032,65.75-8.682c0.001,0.001,0.001,0.001,0.002,0.002c3.686-0.994,7.339-2.068,10.956-3.222
	c7.462-2.381,14.775-5.091,21.917-8.131v-1.883v-26.867v-2.295C354.626,445.389,349.09,430.365,339.011,418.548z"/>
<path style="fill:#F8E5B5;" d="M192.159,401.011c-0.643,0.462-1.276,0.939-1.909,1.415c-6.44,4.839-12.337,10.364-17.565,16.479
	c-0.06,0.071-0.121,0.141-0.182,0.213c-9.897,11.635-15.128,26.528-15.128,41.803v2.265v28.78c7.142,3.04,14.455,5.75,21.917,8.131
	c3.617,1.155,7.27,2.228,10.956,3.222c0.001-0.001,0.001-0.001,0.002-0.002c1.16,0.312,2.325,0.615,3.492,0.911
	c19.915,5.063,40.768,7.772,62.258,7.772V380.498C232.18,380.499,210.136,388.103,192.159,401.011z"/>
<polygon style="fill:#BD7155;" points="256,389.552 199.166,459.52 256,491.09 312.835,459.52 "/>
<path style="fill:#8D472E;" d="M284.043,445.159c-3.647-0.06-7.18,0.389-10.532,1.282c-5.744,1.53-11.628,2.295-17.51,2.295
	l-24.108,34.772L256,512c22.75,0,44.787-3.032,65.75-8.682v-2.276v-0.308v-16.13v-0.308
	C321.751,463.543,304.794,445.501,284.043,445.159z"/>
<path style="fill:#AB5034;" d="M238.49,446.441c-3.352-0.893-6.884-1.342-10.532-1.282c-11.516,0.19-21.863,5.831-28.793,14.361
	c-5.557,6.841-8.916,15.54-8.916,24.776v0.308v16.13v0.308v2.276c20.963,5.65,43.002,8.682,65.75,8.682v-63.264
	C250.118,448.736,244.234,447.971,238.49,446.441z"/>
<path style="fill:#ECCE93;" d="M425.855,210.644c-8.041,0-15.626,1.937-22.332,5.351c-17.717-67.021-73.473-127.144-140.424-131.149
	c-2.354-0.141-4.719-0.222-7.099-0.222c-1.021,0-2.039,0.016-3.056,0.042c-0.342,0.009-0.684,0.024-1.026,0.036
	c-0.67,0.023-1.338,0.048-2.005,0.083c-0.415,0.022-0.831,0.047-1.246,0.073c-0.591,0.036-1.18,0.077-1.77,0.122
	c-0.446,0.034-0.891,0.07-1.336,0.11c-0.553,0.049-1.107,0.103-1.659,0.16c-0.465,0.047-0.929,0.094-1.393,0.147
	c-0.518,0.059-1.034,0.126-1.551,0.192c-0.49,0.062-0.98,0.121-1.467,0.19c-0.411,0.057-0.82,0.124-1.23,0.185
	c-1.182,0.178-2.36,0.371-3.534,0.584c-0.274,0.049-0.55,0.095-0.824,0.147c-0.659,0.124-1.315,0.258-1.971,0.392
	c-0.29,0.059-0.581,0.117-0.87,0.179c-0.671,0.142-1.339,0.291-2.006,0.446c-0.256,0.059-0.514,0.118-0.77,0.18
	c-0.702,0.167-1.404,0.338-2.103,0.516c-0.183,0.046-0.365,0.095-0.548,0.142c-4.295,1.117-8.526,2.457-12.682,4.012h-0.001
	c-36.262,13.563-66.958,43.265-86.703,79.196c-0.007,0.002-0.013,0.004-0.02,0.007c-0.135,0.244-0.259,0.494-0.392,0.74
	c-0.771,1.419-1.532,2.845-2.269,4.281c-0.079,0.155-0.159,0.308-0.238,0.462c-0.832,1.633-1.642,3.277-2.428,4.931
	c-0.088,0.184-0.174,0.369-0.262,0.553c-0.788,1.67-1.555,3.349-2.296,5.039c-0.047,0.107-0.092,0.215-0.138,0.321
	c-0.764,1.751-1.506,3.512-2.218,5.283c-0.002,0.004-0.003,0.009-0.005,0.013c-0.688,1.713-1.347,3.435-1.986,5.165
	c-0.082,0.221-0.165,0.443-0.247,0.665c-0.603,1.648-1.18,3.304-1.737,4.966c-0.094,0.282-0.187,0.564-0.281,0.846
	c-0.547,1.658-1.074,3.323-1.575,4.992c-0.07,0.233-0.137,0.468-0.206,0.702c-0.516,1.746-1.014,3.496-1.477,5.251
	c-0.001,0.002-0.001,0.005-0.002,0.008l104.272,186.422c13.184,7.149,28.037,10.972,43.255,10.972
	c22.279,0,43.782-8.183,60.4-23.021c24.995-22.319,60.972-57.585,80.028-90.824c8.214,6.118,18.397,9.741,29.427,9.741
	c27.235,0,49.313-22.078,49.313-49.313S453.09,210.644,425.855,210.644z"/>
<path style="fill:#F8E5B5;" d="M338.736,299.156c0-18.535-16.564-32.697-34.868-29.782c-4.074,0.649-8.166,1.213-12.272,1.693
	c-1.58,0.184-3.187,0.278-4.775,0.278c-19.57,0-36.517-13.951-40.297-33.174l-7.435-37.803c-0.013-0.069-0.027-0.138-0.041-0.207
	c-1.796-9.031-12.806-12.731-19.74-6.674c-21.698,18.955-47.449,33.376-75.778,41.75c-6.792,2.008-14.228-0.185-18.608-5.751
	c-4.417-5.612-10.027-10.241-16.446-13.507c-0.001,0.003-0.002,0.008-0.003,0.011c-7.663-3.899-16.473-5.87-25.799-5.227
	c-24.975,1.723-44.912,22.366-45.806,47.385c-1.003,28.059,21.446,51.121,49.28,51.121c11.03,0,21.212-3.623,29.427-9.741
	c19.056,33.239,55.033,68.505,80.028,90.824c5.268,4.703,11.029,8.733,17.145,12.05c22.072-0.141,43.348-8.298,59.822-23.008
	c17.653-15.763,40.783-37.984,59.561-61.389C336.416,312.663,338.736,306.009,338.736,299.156L338.736,299.156z"/>
<circle style="fill:#E1B872;" cx="425.854" cy="259.955" r="16.438"/>
<circle style="fill:#ECCE93;" cx="86.144" cy="259.955" r="16.438"/>
<path style="fill:#BE6054;" d="M256,307.509c-6.586,0-12.777-2.565-17.435-7.222c-3.21-3.21-3.21-8.414,0.001-11.624
	c3.21-3.209,8.414-3.209,11.622,0c1.552,1.553,3.616,2.408,5.811,2.408c2.195,0,4.259-0.855,5.811-2.408
	c3.211-3.21,8.415-3.21,11.622,0c3.211,3.21,3.211,8.414,0.001,11.624C268.778,304.945,262.586,307.509,256,307.509z"/>
<g>
	<path style="fill:#DFB296;" d="M177.1,290.093h-10.958c-4.54,0-8.219-3.68-8.219-8.219c0-4.539,3.679-8.219,8.219-8.219H177.1
		c4.54,0,8.219,3.68,8.219,8.219S181.639,290.093,177.1,290.093z"/>
	<path style="fill:#DFB296;" d="M345.859,290.093h-10.958c-4.54,0-8.219-3.68-8.219-8.219c0-4.539,3.679-8.219,8.219-8.219h10.958
		c4.54,0,8.219,3.68,8.219,8.219S350.398,290.093,345.859,290.093z"/>
</g>
<g>
	<path style="fill:#474641;" d="M217.646,268.176c-4.54,0-8.219-3.68-8.219-8.219c0-4.532-3.686-8.219-8.219-8.219
		c-4.532,0-8.219,3.686-8.219,8.219c0,4.539-3.679,8.219-8.219,8.219s-8.219-3.68-8.219-8.219c0-13.596,11.061-24.656,24.656-24.656
		c13.595,0,24.656,11.06,24.656,24.656C225.865,264.496,222.185,268.176,217.646,268.176z"/>
	<path style="fill:#474641;" d="M327.23,268.176c-4.54,0-8.219-3.68-8.219-8.219c0-4.532-3.686-8.219-8.219-8.219
		s-8.219,3.686-8.219,8.219c0,4.539-3.679,8.219-8.219,8.219s-8.219-3.68-8.219-8.219c0-13.596,11.061-24.656,24.656-24.656
		c13.595,0,24.656,11.06,24.656,24.656C335.449,264.496,331.769,268.176,327.23,268.176z"/>
	<path style="fill:#474641;" d="M165.713,243.591c-1.679,0-3.373-0.513-4.834-1.577c-3.669-2.673-4.475-7.813-1.803-11.482
		c7.109-9.757,17.313-17.179,28.732-20.899c4.318-1.406,8.954,0.953,10.36,5.269c1.406,4.315-0.952,8.954-5.269,10.361
		c-8.155,2.656-15.45,7.966-20.538,14.949C170.754,242.419,168.251,243.591,165.713,243.591z"/>
</g>
<rect x="102.582" y="189.821" style="fill:#848075;" width="46.025" height="164.376"/>
<g>
	<rect x="363.391" y="189.821" style="fill:#706B63;" width="46.025" height="164.376"/>
	<path style="fill:#706B63;" d="M384.802,71.903c-22.312-14.992-49.11-26.145-78.718-32.132c-3.853-0.779-7.807-1.174-11.748-1.174
		c-14.594,0-28.04,5.244-38.335,13.796l-26.677,79.522c17.391,17.391,29.212,39.564,33.958,63.696l7.435,37.803
		c1.655,8.414,9.503,14.159,18.02,13.164c30.234-3.531,58.963-11.991,85.358-24.562c5.607-2.671,12.265,0.34,13.949,6.319
		l0.033,0.117c4.278-5.146,9.589-9.397,15.607-12.46c6.662-3.389,14.19-5.318,22.171-5.342v-0.186v-60.851
		C425.855,118.516,410.612,89.246,384.802,71.903z"/>
</g>
<path style="fill:#848075;" d="M384.324,71.583c-19.064-12.727-41.377-22.66-65.9-28.978c-0.113-0.028-0.238-0.059-0.375-0.091
	c-11.235-2.615-21.215,7.716-18.391,18.9l8.667,34.328c9.22,36.521,32.734,67.802,65.253,86.81l0,0
	c11.663,6.817,25.496,8.906,38.651,5.835l0.204-0.047l0,0c7.855-1.8,13.424-8.791,13.424-16.85v-21.878
	C425.855,118.313,410.356,88.962,384.324,71.583z"/>
<path style="fill:#5B5751;" d="M229.323,131.915c8.286,8.286,15.29,17.667,20.884,27.819c24.306-33.433,38.668-74.54,38.668-118.945
	v-1.945C276.402,39.973,264.997,44.92,256,52.393L229.323,131.915z"/>
<path style="fill:#706B63;" d="M148.608,233.66v-43.837h-46.025v53.027C118.512,241.566,133.923,238.427,148.608,233.66z"/>
<path style="fill:#8D472E;" d="M255.63,52.023c-5.783,88.572-79.451,158.622-169.485,158.622l-40.172-40.171
	c-8.559-8.558-8.56-22.436,0-30.995L179.032,6.419c8.559-8.559,22.436-8.559,30.995,0L255.63,52.023z"/>
<path style="fill:#AB5034;" d="M185.841,177.947c28.436-39.93,23.585-94.64-11.078-129.302l-3.481-3.481
	c-8.559-8.559-22.435-8.56-30.995,0l-94.314,94.314c-8.559,8.56-8.559,22.436,0,30.995l40.172,40.171
	c37.013,0,71.255-11.846,99.157-31.944C185.483,178.45,185.663,178.199,185.841,177.947z"/>
<path style="fill:#ADA999;" d="M255.63,52.023l-32.505-32.505v21.271c0,25.521-7.023,49.43-19.228,69.908l-18.056,67.249
	c-0.17,0.238-0.34,0.476-0.51,0.712C225.28,149.868,252.226,104.165,255.63,52.023z"/>
<path style="fill:#C1BDAB;" d="M185.841,177.947c14.347-20.146,20.208-44.053,18.056-67.249
	c-23.914,40.129-67.743,67.072-117.752,67.072H53.27c1.643,1.643,3.468,3.468,5.415,5.415c1.177,1.177,2.393,2.393,3.628,3.628
	c1.235,1.235,2.491,2.491,3.747,3.747c1.256,1.256,2.511,2.511,3.747,3.747c1.854,1.854,3.663,3.663,5.362,5.362
	c1.699,1.699,3.288,3.288,4.7,4.7c0.706,0.706,1.351,1.35,1.96,1.96c0.407,0.407,0.788,0.788,1.145,1.145
	c0.536,0.536,1.033,1.033,1.445,1.445c0.549,0.549,0.981,0.981,1.274,1.274c0.147,0.147,0.26,0.26,0.336,0.336
	c0.076,0.076,0.115,0.115,0.115,0.115c0.011,0,0.021,0,0.032,0c1.285,0,2.565-0.018,3.844-0.047c0.418-0.01,0.833-0.025,1.25-0.037
	c0.879-0.026,1.757-0.057,2.631-0.096c0.478-0.022,0.956-0.046,1.432-0.071c0.827-0.044,1.653-0.094,2.477-0.15
	c0.473-0.032,0.948-0.064,1.42-0.1c0.893-0.068,1.783-0.146,2.672-0.228c0.384-0.035,0.769-0.066,1.152-0.104
	c1.239-0.123,2.474-0.258,3.706-0.407c0.354-0.043,0.706-0.093,1.06-0.138c0.893-0.114,1.785-0.231,2.675-0.359
	c0.504-0.072,1.006-0.15,1.509-0.228c0.739-0.113,1.477-0.229,2.212-0.352c0.537-0.09,1.074-0.181,1.61-0.275
	c0.706-0.125,1.41-0.255,2.114-0.388c0.536-0.102,1.072-0.201,1.605-0.308c0.756-0.151,1.51-0.311,2.263-0.472
	c0.591-0.126,1.182-0.251,1.771-0.384c1.002-0.225,2-0.458,2.995-0.7c0.585-0.142,1.167-0.295,1.75-0.444
	c0.598-0.152,1.196-0.306,1.792-0.465c0.627-0.168,1.251-0.341,1.875-0.515c0.542-0.152,1.084-0.306,1.625-0.464
	c0.644-0.187,1.289-0.377,1.931-0.571c0.501-0.152,0.998-0.309,1.497-0.466c0.672-0.21,1.345-0.42,2.012-0.639
	c0.33-0.108,0.656-0.222,0.986-0.332c1.52-0.508,3.031-1.038,4.532-1.588c0.293-0.107,0.587-0.211,0.88-0.32
	c0.752-0.281,1.498-0.57,2.244-0.86c0.356-0.138,0.712-0.276,1.067-0.418c0.746-0.296,1.489-0.598,2.23-0.904
	c0.329-0.136,0.658-0.274,0.986-0.412c0.773-0.325,1.544-0.653,2.31-0.99c0.205-0.09,0.408-0.183,0.613-0.274
	c2.746-1.217,5.455-2.504,8.122-3.861c0.092-0.047,0.185-0.092,0.277-0.139c0.837-0.427,1.67-0.865,2.499-1.306
	c0.185-0.099,0.37-0.197,0.554-0.296c0.825-0.443,1.646-0.892,2.463-1.348c0.135-0.076,0.27-0.152,0.404-0.228
	c3.652-2.053,7.222-4.234,10.701-6.543c0.035-0.023,0.07-0.046,0.105-0.069c0.838-0.558,1.672-1.123,2.5-1.695
	c0.095-0.066,0.191-0.131,0.286-0.197c0.835-0.579,1.665-1.164,2.489-1.758C185.483,178.45,185.663,178.199,185.841,177.947z"/>
<path style="fill:#8D472E;" d="M49.795,218.983c-4.527,0-8.203-3.661-8.219-8.191c-0.015-4.539,3.652-8.231,8.191-8.246
	l36.349-0.119c89.154,0,161.664-72.509,161.664-161.636V8.219c0-4.539,3.68-8.219,8.219-8.219c4.539,0,8.219,3.68,8.219,8.219
	v32.571c0,98.19-79.883,178.074-178.074,178.074l-36.323,0.119C49.814,218.983,49.804,218.983,49.795,218.983z"/>
</svg>